<svg width="1007" height="829" viewBox="0 0 1007 829" fill="none" xmlns="http://www.w3.org/2000/svg">
<path d="M499.728 55L768.629 388.75H230.827L499.728 55Z" fill="#007922" fill-opacity="0.8"/>
<path d="M499.728 722L230.827 388.25L768.629 388.25L499.728 722Z" fill="#007922" fill-opacity="0.8"/>
<path d="M711.2 96.9285L862.477 497.942L351.551 330.057L711.2 96.9285Z" fill="#007922" fill-opacity="0.8"/>
<path d="M502.983 730.596L351.707 329.582L862.633 497.467L502.983 730.596Z" fill="#007922" fill-opacity="0.8"/>
<path d="M294.985 97.9239L654.631 331.058L143.702 498.935L294.985 97.9239Z" fill="#007922" fill-opacity="0.8"/>
<path d="M503.192 731.595L143.546 498.46L654.474 330.583L503.192 731.595Z" fill="#007922" fill-opacity="0.8"/>
<path d="M503.255 238L650 336.449L503.255 722L350 336.449L503.255 238Z" fill="white" stroke="black" stroke-width="6"/>
<rect x="415.785" y="410.667" width="169.085" height="47.3333" fill="#27DF71"/>
<rect x="429.774" y="414.667" width="28.5863" height="6" fill="#007922"/>
<rect x="418.218" y="423" width="112.521" height="6" fill="#007922"/>
<rect x="443.763" y="448" width="59.6055" height="6" fill="#007922"/>
<path d="M429.774 431.333H530.738L528.61 442L518.467 443.667H477.064H439.651L431.142 442L429.774 431.333Z" fill="#007922"/>
<rect x="502.152" y="414.333" width="28.5863" height="6" fill="#007922"/>
<rect x="536.82" y="414.667" width="21.8959" height="6" fill="#007922"/>
<rect x="536.82" y="423" width="21.8959" height="11.6667" fill="#007922"/>
<rect x="561.453" y="422.667" width="21.8959" height="33" fill="#007922"/>
<rect x="464.443" y="414.333" width="28.5863" height="6" fill="#007922"/>
<rect x="418.218" y="414.333" width="5.47397" height="6" fill="#007922"/>
<rect x="436.464" y="448" width="5.47397" height="6" fill="#007922"/>
<rect x="536.82" y="449.667" width="5.47397" height="6" fill="#007922"/>
<rect x="545.031" y="442" width="5.47397" height="6" fill="#007922"/>
<rect x="553.242" y="449.667" width="5.47397" height="6" fill="#007922"/>
<rect x="545.031" y="449.667" width="5.47397" height="6" fill="#007922"/>
<rect x="513.708" y="448" width="5.47397" height="6" fill="#007922"/>
<rect x="429.166" y="448" width="5.47397" height="6" fill="#007922"/>
<rect x="505.497" y="448" width="5.47397" height="6" fill="#007922"/>
<rect x="418.218" y="431.333" width="8.81918" height="6" fill="#007922"/>
<rect x="418.218" y="448" width="8.81918" height="6" fill="#007922"/>
<rect x="521.919" y="448" width="8.81918" height="6" fill="#007922"/>
<rect x="418.218" y="439.667" width="8.81918" height="6" fill="#007922"/>
</svg>
